<?xml version="1.0" encoding="UTF-8"?>
<svg version="1.1" xmlns="http://www.w3.org/2000/svg" width="160" height="40">
<path d="M0 0 C3.41750949 1.8390835 6.23278375 3.75765915 8.03125 7.2421875 C7.70125 8.2321875 7.37125 9.2221875 7.03125 10.2421875 C6.04125 10.2421875 5.05125 10.2421875 4.03125 10.2421875 C2.9175 9.035625 2.9175 9.035625 1.78125 7.8046875 C-1.59699922 4.65677345 -3.40008827 4.32233946 -7.96875 4.2421875 C-11.30092693 4.5466337 -11.30092693 4.5466337 -13.96875 6.2421875 C-15.42897435 9.76669909 -15.42897435 9.76669909 -15.96875 13.2421875 C-14.73125 13.11650391 -14.73125 13.11650391 -13.46875 12.98828125 C-4.15837885 12.16738915 4.73660153 12.45757432 14.03125 13.2421875 C13.70125 14.5621875 13.37125 15.8821875 13.03125 17.2421875 C11.71125 17.2421875 10.39125 17.2421875 9.03125 17.2421875 C8.9384375 18.2940625 8.9384375 18.2940625 8.84375 19.3671875 C7.61841637 23.7029834 5.02484875 27.01599915 1.1640625 29.390625 C-3.39954252 31.21272371 -8.60148326 31.23422554 -13.140625 29.33203125 C-16.55064155 27.14088425 -17.77802968 25.91606598 -18.90625 21.9296875 C-18.926875 21.0428125 -18.9475 20.1559375 -18.96875 19.2421875 C-15.14591957 19.78830613 -13.55795048 21.48037365 -10.96875 24.2421875 C-7.86826072 25.79243214 -5.38980782 25.53210765 -1.96875 25.2421875 C1.85733832 22.86151033 2.97860839 21.34747071 5.03125 17.2421875 C-4.86875 17.2421875 -14.76875 17.2421875 -24.96875 17.2421875 C-24.96875 15.9221875 -24.96875 14.6021875 -24.96875 13.2421875 C-23.64875 13.2421875 -22.32875 13.2421875 -20.96875 13.2421875 C-20.9275 12.5615625 -20.88625 11.8809375 -20.84375 11.1796875 C-19.44045426 6.46862325 -16.23048189 2.60733643 -12.0078125 0.05859375 C-8.03826562 -1.5307459 -3.95347816 -1.52177532 0 0 Z " fill="#9B54D6" transform="translate(44.96875,4.7578125)"/>
<path d="M0 0 C3.41750949 1.8390835 6.23278375 3.75765915 8.03125 7.2421875 C7.70125 8.2321875 7.37125 9.2221875 7.03125 10.2421875 C6.04125 10.2421875 5.05125 10.2421875 4.03125 10.2421875 C2.9175 9.035625 2.9175 9.035625 1.78125 7.8046875 C-1.59699922 4.65677345 -3.40008827 4.32233946 -7.96875 4.2421875 C-11.30092693 4.5466337 -11.30092693 4.5466337 -13.96875 6.2421875 C-15.42897435 9.76669909 -15.42897435 9.76669909 -15.96875 13.2421875 C-13.98875 13.2421875 -12.00875 13.2421875 -9.96875 13.2421875 C-9.96875 14.5621875 -9.96875 15.8821875 -9.96875 17.2421875 C-14.91875 17.2421875 -19.86875 17.2421875 -24.96875 17.2421875 C-24.96875 15.9221875 -24.96875 14.6021875 -24.96875 13.2421875 C-23.64875 13.2421875 -22.32875 13.2421875 -20.96875 13.2421875 C-20.9275 12.5615625 -20.88625 11.8809375 -20.84375 11.1796875 C-19.44045426 6.46862325 -16.23048189 2.60733643 -12.0078125 0.05859375 C-8.03826562 -1.5307459 -3.95347816 -1.52177532 0 0 Z " fill="#47ACC3" transform="translate(44.96875,4.7578125)"/>
<path d="M0 0 C1.588125 -0.061875 3.17625 -0.12375 4.8125 -0.1875 C6.15248047 -0.23970703 6.15248047 -0.23970703 7.51953125 -0.29296875 C10 0 10 0 11.79296875 1.26171875 C13.62622664 3.90184742 13.54461576 5.98870941 13.40625 9.125 C13 11 13 11 11 13 C7.11349964 14.29550012 4.08606506 14.20776602 0 14 C0 9.38 0 4.76 0 0 Z M5 3 C5 5.31 5 7.62 5 10 C6.32 9.67 7.64 9.34 9 9 C8.67 7.02 8.34 5.04 8 3 C7.01 3 6.02 3 5 3 Z " fill="#616EFF" transform="translate(99,13)"/>
<path d="M0 0 C1.21816406 0.03480469 1.21816406 0.03480469 2.4609375 0.0703125 C3.68683594 0.09738281 3.68683594 0.09738281 4.9375 0.125 C5.87722656 0.15980469 5.87722656 0.15980469 6.8359375 0.1953125 C7.4959375 1.5153125 8.1559375 2.8353125 8.8359375 4.1953125 C6.5259375 4.1953125 4.2159375 4.1953125 1.8359375 4.1953125 C5.3009375 5.6803125 5.3009375 5.6803125 8.8359375 7.1953125 C8.5059375 9.1753125 8.1759375 11.1553125 7.8359375 13.1953125 C6.5778125 13.3809375 5.3196875 13.5665625 4.0234375 13.7578125 C2.96189453 13.91443359 2.96189453 13.91443359 1.87890625 14.07421875 C-0.1640625 14.1953125 -0.1640625 14.1953125 -3.1640625 13.1953125 C-3.8515625 11.1328125 -3.8515625 11.1328125 -4.1640625 9.1953125 C-1.40130073 9.71799716 1.1620251 10.30400837 3.8359375 11.1953125 C3.8359375 10.5353125 3.8359375 9.8753125 3.8359375 9.1953125 C1.5259375 8.5353125 -0.7840625 7.8753125 -3.1640625 7.1953125 C-3.7890625 4.8203125 -3.7890625 4.8203125 -4.1640625 2.1953125 C-2.1640625 0.1953125 -2.1640625 0.1953125 0 0 Z " fill="#01BDFF" transform="translate(118.1640625,12.8046875)"/>
<path d="M0 0 C3.41750949 1.8390835 6.23278375 3.75765915 8.03125 7.2421875 C7.70125 8.2321875 7.37125 9.2221875 7.03125 10.2421875 C6.04125 10.2421875 5.05125 10.2421875 4.03125 10.2421875 C2.9175 9.035625 2.9175 9.035625 1.78125 7.8046875 C-1.57676386 4.67562914 -3.44223752 4.40384866 -7.96875 4.2421875 C-9.64218448 4.53968696 -11.31180915 4.86345816 -12.96875 5.2421875 C-13.62875 4.9121875 -14.28875 4.5821875 -14.96875 4.2421875 C-13.96875 1.2421875 -13.96875 1.2421875 -12.40625 0.0546875 C-8.19432119 -1.34928877 -4.14704545 -1.59628337 0 0 Z " fill="#9A32CA" transform="translate(44.96875,4.7578125)"/>
<path d="M0 0 C2.375 -0.1875 2.375 -0.1875 5 0 C5.66 0.99 6.32 1.98 7 3 C7.66 2.01 8.32 1.02 9 0 C11.625 -0.1875 11.625 -0.1875 14 0 C13.72285156 0.50789062 13.44570312 1.01578125 13.16015625 1.5390625 C10.9665317 5.7077298 9.47586845 9.24131553 9 14 C7.68 14 6.36 14 5 14 C4.731875 12.948125 4.46375 11.89625 4.1875 10.8125 C3.12838692 7.41218959 1.87464985 4.9823975 0 2 C0 1.34 0 0.68 0 0 Z " fill="#C021FF" transform="translate(83,13)"/>
<path d="M0 0 C2.375 -0.1875 2.375 -0.1875 5 0 C5.66 0.99 6.32 1.98 7 3 C7.66 2.01 8.32 1.02 9 0 C11.625 -0.1875 11.625 -0.1875 14 0 C12.87548273 2.9719385 11.77706209 5.33440687 10 8 C9.60986284 9.9896995 9.26797351 11.99019869 9 14 C7.68 14 6.36 14 5 14 C4.731875 12.80375 4.46375 11.6075 4.1875 10.375 C3.25912994 6.62144624 1.86951157 3.39911194 0 0 Z " fill="#E107FF" transform="translate(67,13)"/>
<path d="M0 0 C2.76614681 0.39516383 3.79347389 0.75375733 5.625 2.9375 C9.23481305 6.07233765 13.36421099 6.32763366 18 7 C17.67 8.32 17.34 9.64 17 11 C11.10587561 11.60144126 7.0203039 11.30937889 2.30859375 7.51171875 C0.30071086 5.19216448 0.06966289 2.99550441 0 0 Z " fill="#42C3D0" transform="translate(26,24)"/>
<path d="M0 0 C0.66 0 1.32 0 2 0 C2.3125 2.3125 2.3125 2.3125 2 5 C-0.97216006 7.69352006 -3.43053804 8.17370973 -7.3125 8.1875 C-9.1378125 8.0946875 -9.1378125 8.0946875 -11 8 C-11 7.34 -11 6.68 -11 6 C-10.45730469 5.81824219 -9.91460937 5.63648438 -9.35546875 5.44921875 C-8.28232422 5.07216797 -8.28232422 5.07216797 -7.1875 4.6875 C-6.47980469 4.44386719 -5.77210937 4.20023438 -5.04296875 3.94921875 C-2.85109073 2.93081271 -1.67201868 1.71034576 0 0 Z " fill="#07B8FF" transform="translate(110,19)"/>
<path d="M0 0 C2.97 0 5.94 0 9 0 C8.67 1.32 8.34 2.64 8 4 C6.68 4 5.36 4 4 4 C3.67 5.32 3.34 6.64 3 8 C2.01 7.67 1.02 7.34 0 7 C0 4.69 0 2.38 0 0 Z " fill="#9C40D7" transform="translate(50,18)"/>
<path d="M0 0 C1.23556641 0.01740234 1.23556641 0.01740234 2.49609375 0.03515625 C3.32238281 0.04417969 4.14867188 0.05320312 5 0.0625 C5.63808594 0.07410156 6.27617188 0.08570313 6.93359375 0.09765625 C7.59359375 1.41765625 8.25359375 2.73765625 8.93359375 4.09765625 C7.10828125 4.06671875 7.10828125 4.06671875 5.24609375 4.03515625 C2.01382053 4.02941509 -0.91575366 4.3099931 -4.06640625 5.09765625 C-2.94676868 0.13926128 -2.94676868 0.13926128 0 0 Z " fill="#25A0FF" transform="translate(118.06640625,12.90234375)"/>
<path d="M0 0 C3.16717283 1.58358642 4.73268318 2.45263699 6.3125 5.6875 C6.6528125 6.8321875 6.6528125 6.8321875 7 8 C5.3125 8.8125 5.3125 8.8125 3 9 C0.375 6.6875 0.375 6.6875 -2 4 C-2.66 3.34 -3.32 2.68 -4 2 C-2.68 2 -1.36 2 0 2 C0 1.34 0 0.68 0 0 Z " fill="#AF35D8" transform="translate(46,6)"/>
<path d="M0 0 C0.66 0.33 1.32 0.66 2 1 C1.01 2.485 1.01 2.485 0 4 C-0.39013716 5.9896995 -0.73202649 7.99019869 -1 10 C-2.32 10 -3.64 10 -5 10 C-5.33 7.69 -5.66 5.38 -6 3 C-4.03533587 1.93224776 -2.03144641 0.93446535 0 0 Z " fill="#9247FF" transform="translate(93,17)"/>
<path d="M0 0 C0.763125 0.20625 1.52625 0.4125 2.3125 0.625 C-2.3125 5.5 -2.3125 5.5 -5.6875 6.625 C-5.875 4.25 -5.875 4.25 -5.6875 1.625 C-2.6875 -0.375 -2.6875 -0.375 0 0 Z " fill="#73A0E1" transform="translate(48.6875,28.375)"/>
<path d="M0 0 C3.04386724 -0.08226668 5.07175348 0.02391783 8 1 C7.67 1.99 7.34 2.98 7 4 C4.69 4 2.38 4 0 4 C0 2.68 0 1.36 0 0 Z " fill="#7984CE" transform="translate(35,18)"/>
<path d="M0 0 C1.32 0.66 2.64 1.32 4 2 C3.01 2.495 3.01 2.495 2 3 C1.67 3.99 1.34 4.98 1 6 C-0.65 6.33 -2.3 6.66 -4 7 C-2.92598892 4.08482708 -2.22189824 2.22189824 0 0 Z " fill="#6987C5" transform="translate(29,8)"/>
<path d="M0 0 C1.65 0 3.3 0 5 0 C5.33 1.32 5.66 2.64 6 4 C4.68 4.33 3.36 4.66 2 5 C1.34 3.35 0.68 1.7 0 0 Z " fill="#E503FF" transform="translate(83,13)"/>
<path d="M0 0 C0.33 0.99 0.66 1.98 1 3 C1.66 3.66 2.32 4.32 3 5 C2.67 5.66 2.34 6.32 2 7 C-0.0625 7.625 -0.0625 7.625 -2 8 C-2 4.23312136 -1.76462683 3.08809695 0 0 Z " fill="#8464DB" transform="translate(50,22)"/>
<path d="M0 0 C0.99 0.33 1.98 0.66 3 1 C3 1.99 3 2.98 3 4 C-0.75 5.125 -0.75 5.125 -3 4 C-2.67 3.01 -2.34 2.02 -2 1 C-1.34 0.67 -0.68 0.34 0 0 Z " fill="#935BDB" transform="translate(33,5)"/>
<path d="M0 0 C2.64 0 5.28 0 8 0 C5.37801226 2.15377564 3.35595828 3.40072174 0 4 C0 2.68 0 1.36 0 0 Z " fill="#9C3FFF" transform="translate(99,13)"/>
<path d="M0 0 C-0.33 1.32 -0.66 2.64 -1 4 C-2.32 4.33 -3.64 4.66 -5 5 C-5 3.68 -5 2.36 -5 1 C-3 0 -3 0 0 0 Z " fill="#3493FF" transform="translate(104,20)"/>
<path d="M0 0 C5.75 0.875 5.75 0.875 8 2 C8 2.66 8 3.32 8 4 C4.28400809 4.20086443 3.22791555 4.1519437 0 2 C0 1.34 0 0.68 0 0 Z " fill="#7F55B9" transform="translate(40,17)"/>
<path d="M0 0 C0 1.65 0 3.3 0 5 C-1.32 5 -2.64 5 -4 5 C-4 3.68 -4 2.36 -4 1 C-2 0 -2 0 0 0 Z " fill="#5975FF" transform="translate(92,22)"/>
<path d="M0 0 C1.32 0.33 2.64 0.66 4 1 C3.625 2.9375 3.625 2.9375 3 5 C2.01 5.495 2.01 5.495 1 6 C0.67 4.02 0.34 2.04 0 0 Z " fill="#2ABABA" transform="translate(26,24)"/>
<path d="M0 0 C0.66 0.33 1.32 0.66 2 1 C2.625 4.0625 2.625 4.0625 3 7 C-0.465 5.02 -0.465 5.02 -4 3 C-2.68 2.67 -1.36 2.34 0 2 C0 1.34 0 0.68 0 0 Z " fill="#BD36E3" transform="translate(46,6)"/>
</svg>
