<?xml version="1.0" encoding="UTF-8"?>
<svg version="1.1" xmlns="http://www.w3.org/2000/svg" width="65" height="64">
<path d="M0 0 C5.02136102 2.8462465 9.34933445 6.50794688 11.40234375 12.02734375 C11.47582031 12.65769531 11.54929688 13.28804687 11.625 13.9375 C10.965 14.5975 10.305 15.2575 9.625 15.9375 C6.06441321 15.63835234 4.47168934 14.06535812 2.125 11.5 C-0.96053658 8.14097267 -3.31778949 6.20843431 -7.92578125 5.6015625 C-15.22326568 5.47606238 -15.22326568 5.47606238 -21.75512695 8.35400391 C-23.82959571 10.38188701 -24.82502736 12.48857435 -26.0703125 15.1015625 C-26.72410889 16.45822021 -26.72410889 16.45822021 -27.39111328 17.84228516 C-27.87813721 18.8794165 -27.87813721 18.8794165 -28.375 19.9375 C-27.6722998 19.90197021 -26.96959961 19.86644043 -26.24560547 19.82983398 C-10.53666947 19.06494594 4.92889646 18.90590573 20.625 19.9375 C20.625 21.9175 20.625 23.8975 20.625 25.9375 C18.315 25.9375 16.005 25.9375 13.625 25.9375 C13.58375 26.741875 13.5425 27.54625 13.5 28.375 C11.60936127 36.07260054 6.80352523 41.33736374 0.45703125 45.84375 C-5.28514544 49.27191519 -13.39433723 48.9161347 -19.7265625 47.359375 C-25.61487292 44.77884055 -29.42502894 39.85395334 -33.375 34.9375 C-32.715 33.2875 -32.055 31.6375 -31.375 29.9375 C-29.6875 30.0625 -29.6875 30.0625 -27.375 30.9375 C-26.14200114 32.43007757 -24.91075587 33.92432397 -23.703125 35.4375 C-20.89475811 38.60930261 -17.94603316 39.74498308 -13.79296875 40.25390625 C-7.42655692 40.52389088 -3.39585223 39.93368851 1.625 35.9375 C3.92680378 32.84027167 5.40343921 29.60218236 6.625 25.9375 C5.635 26.2675 4.645 26.5975 3.625 26.9375 C2.21385021 27.02832154 0.79883423 27.06539085 -0.61523438 27.06689453 C-1.46621704 27.07004669 -2.31719971 27.07319885 -3.19396973 27.07644653 C-4.10964722 27.0744223 -5.02532471 27.07239807 -5.96875 27.0703125 C-6.91182007 27.07126923 -7.85489014 27.07222595 -8.82653809 27.07321167 C-10.82039456 27.07389215 -12.81425325 27.07204704 -14.80810547 27.06787109 C-17.86300627 27.062521 -20.91776004 27.06782055 -23.97265625 27.07421875 C-25.90885449 27.07355795 -27.84505264 27.07227673 -29.78125 27.0703125 C-31.15476624 27.07334885 -31.15476624 27.07334885 -32.55603027 27.07644653 C-33.40701294 27.07329437 -34.25799561 27.07014221 -35.13476562 27.06689453 C-35.88294556 27.06609894 -36.63112549 27.06530334 -37.40197754 27.06448364 C-39.375 26.9375 -39.375 26.9375 -42.375 25.9375 C-43.125 24 -43.125 24 -43.375 21.9375 C-43.045 21.2775 -42.715 20.6175 -42.375 19.9375 C-40.065 19.9375 -37.755 19.9375 -35.375 19.9375 C-35.33375 18.9475 -35.2925 17.9575 -35.25 16.9375 C-34.25362763 10.18127643 -29.39881008 5.51905464 -24.1875 1.5 C-17.06444133 -3.65613911 -7.88075044 -3.64738829 0 0 Z " fill="#9A43D2" transform="translate(43.375,9.0625)"/>
<path d="M0 0 C5.02136102 2.8462465 9.34933445 6.50794688 11.40234375 12.02734375 C11.47582031 12.65769531 11.54929688 13.28804687 11.625 13.9375 C10.965 14.5975 10.305 15.2575 9.625 15.9375 C6.06441321 15.63835234 4.47168934 14.06535812 2.125 11.5 C-0.94568281 8.15714303 -3.30522974 6.21389789 -7.890625 5.6015625 C-14.55518026 5.50635457 -18.65893774 6.4862926 -24.375 9.9375 C-25.365 9.2775 -26.355 8.6175 -27.375 7.9375 C-28.365 7.6075 -29.355 7.2775 -30.375 6.9375 C-29.15364002 5.80402945 -27.92250819 4.68108413 -26.6875 3.5625 C-26.00300781 2.93601562 -25.31851562 2.30953125 -24.61328125 1.6640625 C-17.50428819 -3.81966339 -7.95122839 -3.65684331 0 0 Z " fill="#AA31D2" transform="translate(43.375,9.0625)"/>
<path d="M0 0 C0.33 0.99 0.66 1.98 1 3 C1.66 3 2.32 3 3 3 C1.78322054 6.7372512 0.46233512 10.3441622 -1 14 C3.29 14 7.58 14 12 14 C12.66 15.98 13.32 17.96 14 20 C4.43 20 -5.14 20 -15 20 C-16 16 -16 16 -15 14 C-12.69 14 -10.38 14 -8 14 C-7.8453125 12.4221875 -7.8453125 12.4221875 -7.6875 10.8125 C-7.01565741 7.08682747 -6.38498042 4.91497607 -4 2 C-2.68 2 -1.36 2 0 2 C0 1.34 0 0.68 0 0 Z " fill="#47ADC5" transform="translate(16,15)"/>
<path d="M0 0 C1.6875 0.125 1.6875 0.125 4 1 C5.23299886 2.49257757 6.46424413 3.98682397 7.671875 5.5 C10.50036143 8.69452585 13.4387249 9.87583379 17.65234375 10.2109375 C22.25811103 10.27275988 26.49727235 10.00965322 31 9 C31.495 11.475 31.495 11.475 32 14 C31.34 14 30.68 14 30 14 C29.67 14.99 29.34 15.98 29 17 C24.12337825 19.43831088 16.82316171 18.69291531 11.64453125 17.421875 C5.75924978 14.83751986 1.94954343 9.91592108 -2 5 C-1.34 3.35 -0.68 1.7 0 0 Z " fill="#3FC6D1" transform="translate(12,39)"/>
<path d="M0 0 C0.89203125 0.00902344 1.7840625 0.01804687 2.703125 0.02734375 C3.37859375 0.03894531 4.0540625 0.05054687 4.75 0.0625 C4.8325 1.01125 4.915 1.96 5 2.9375 C5.2475 3.96875 5.495 5 5.75 6.0625 C7.07 6.7225 8.39 7.3825 9.75 8.0625 C-4.44 8.0625 -18.63 8.0625 -33.25 8.0625 C-33.25 7.7325 -33.25 7.4025 -33.25 7.0625 C-20.875 6.5675 -20.875 6.5675 -8.25 6.0625 C-8.58 4.4125 -8.91 2.7625 -9.25 1.0625 C-6.09493858 0.12630187 -3.28413498 -0.0432123 0 0 Z " fill="#6962A3" transform="translate(37.25,27.9375)"/>
<path d="M0 0 C0 1.32 0 2.64 0 4 C1.32 4.33 2.64 4.66 4 5 C2.14375 5.680625 2.14375 5.680625 0.25 6.375 C-2.59245495 7.4384007 -5.32663046 8.55192483 -8 10 C-8.99 9.34 -9.98 8.68 -11 8 C-11.99 7.67 -12.98 7.34 -14 7 C-12.71064081 5.85157077 -11.41843421 4.70633773 -10.125 3.5625 C-9.04605469 2.60537109 -9.04605469 2.60537109 -7.9453125 1.62890625 C-4.87967011 -0.93810756 -3.75777555 -1.12733266 0 0 Z " fill="#914FD3" transform="translate(27,9)"/>
<path d="M0 0 C-2.97927174 5.1243474 -6.00250427 7.79405935 -11 11 C-11.33 11 -11.66 11 -12 11 C-12 9.35 -12 7.7 -12 6 C-11.67 6.66 -11.34 7.32 -11 8 C-10.67 7.67 -10.34 7.34 -10 7 C-10.28604898 5.32457024 -10.61781233 3.65614657 -11 2 C-7.374967 -1.625033 -4.81746234 -1.01907857 0 0 Z " fill="#7D81E1" transform="translate(53,45)"/>
<path d="M0 0 C0.33 1.65 0.66 3.3 1 5 C0.34 5 -0.32 5 -1 5 C-1.33 5.99 -1.66 6.98 -2 8 C-3.75 9 -3.75 9 -6 9 C-8.51185394 6.8386373 -10.50981219 4.98037561 -12 2 C-10.37548581 1.66430703 -8.75037083 1.3315204 -7.125 1 C-6.22007813 0.814375 -5.31515625 0.62875 -4.3828125 0.4375 C-2 0 -2 0 0 0 Z " fill="#43A8C4" transform="translate(43,48)"/>
<path d="M0 0 C2.86724686 0.57344937 3.8614515 0.8614515 6 3 C6 4.32 6 5.64 6 7 C4.02 7.33 2.04 7.66 0 8 C-1.125 5.6875 -1.125 5.6875 -2 3 C-1.34 2.01 -0.68 1.02 0 0 Z " fill="#33C6C7" transform="translate(12,39)"/>
<path d="M0 0 C0.33 0.99 0.66 1.98 1 3 C1.66 3 2.32 3 3 3 C1.25 8.75 1.25 8.75 -1 11 C-1.66 9.68 -2.32 8.36 -3 7 C-3.99 7.495 -3.99 7.495 -5 8 C-4.67 6.02 -4.34 4.04 -4 2 C-2.68 2 -1.36 2 0 2 C0 1.34 0 0.68 0 0 Z " fill="#678EC4" transform="translate(16,15)"/>
<path d="M0 0 C1.65 0 3.3 0 5 0 C5.33 1.65 5.66 3.3 6 5 C7.65 5.33 9.3 5.66 11 6 C11 6.33 11 6.66 11 7 C7.7 6.67 4.4 6.34 1 6 C0.67 4.02 0.34 2.04 0 0 Z " fill="#973BCD" transform="translate(26,7)"/>
<path d="M0 0 C0.33 0.66 0.66 1.32 1 2 C0.67 2.99 0.34 3.98 0 5 C1.32 5.33 2.64 5.66 4 6 C1.525 7.485 1.525 7.485 -1 9 C-1.99 8.34 -2.98 7.68 -4 7 C-4.99 6.67 -5.98 6.34 -7 6 C-4.69 4.02 -2.38 2.04 0 0 Z " fill="#877AD9" transform="translate(20,10)"/>
<path d="M0 0 C0.99 0.33 1.98 0.66 3 1 C2.79375 1.7425 2.5875 2.485 2.375 3.25 C1.95591249 6.32330841 2.38050989 7.42786866 4 10 C2.02 10 0.04 10 -2 10 C-2 6.09567131 -1.31626692 3.61973402 0 0 Z " fill="#9758E7" transform="translate(50,35)"/>
<path d="M0 0 C0.66 0 1.32 0 2 0 C2.33 1.65 2.66 3.3 3 5 C2.34 5 1.68 5 1 5 C0.67 5.99 0.34 6.98 0 8 C-0.99 8 -1.98 8 -3 8 C-4.6875 6 -4.6875 6 -6 4 C-4.35 4 -2.7 4 -1 4 C-0.67 2.68 -0.34 1.36 0 0 Z " fill="#54ABDE" transform="translate(41,48)"/>
<path d="M0 0 C0.66 0 1.32 0 2 0 C2.33 0.99 2.66 1.98 3 3 C3.66 3.33 4.32 3.66 5 4 C5 4.66 5 5.32 5 6 C3.02 6.99 1.04 7.98 -1 9 C-1 7.35 -1 5.7 -1 4 C-0.67 4.66 -0.34 5.32 0 6 C0.33 5.67 0.66 5.34 1 5 C0.71395102 3.32457024 0.38218767 1.65614657 0 0 Z " fill="#5984C0" transform="translate(42,47)"/>
<path d="M0 0 C0.99 0.99 1.98 1.98 3 3 C2.34 3.66 1.68 4.32 1 5 C0.34 4.67 -0.32 4.34 -1 4 C-1.33 4.99 -1.66 5.98 -2 7 C-2.99 5.68 -3.98 4.36 -5 3 C-3.35 2.67 -1.7 2.34 0 2 C0 1.34 0 0.68 0 0 Z " fill="#42DCDD" transform="translate(18,44)"/>
<path d="M0 0 C1.32 0 2.64 0 4 0 C4.66 1.98 5.32 3.96 6 6 C4.35 6 2.7 6 1 6 C0.67 4.02 0.34 2.04 0 0 Z " fill="#6992CC" transform="translate(24,29)"/>
<path d="M0 0 C1.02104551 0.97850195 2.0206121 1.97980427 3 3 C3 3.33 3 3.66 3 4 C1.02 4 -0.96 4 -3 4 C-3 3.01 -3 2.02 -3 1 C-2.01 0.67 -1.02 0.34 0 0 Z " fill="#7D56D7" transform="translate(51,41)"/>
</svg>
